<?xml version="1.0" encoding="UTF-8" standalone="no"?> <svg xmlns="http://www.w3.org/2000/svg" viewBox="0 0 520 520"><title>Polo_shirt</title><g id="Polo_shirt"><path d="M260,131.88a6.11,6.11,0,1,0,6.11,6.11A6.12,6.12,0,0,0,260,131.88Z"/><path d="M260,176.06a6.1,6.1,0,1,0,6.11,6.09A6.1,6.1,0,0,0,260,176.06Z"/><path d="M324.4,470.69h-1.15a3.45,3.45,0,0,0,0,6.9h1.15a3.45,3.45,0,1,0,0-6.9Z"/><path d="M456.48,224.93l-.06-.11-4.58-8.47a3.35,3.35,0,0,0-1.55-2.86L392.44,106.56c-8.24-18.24-23.63-23.79-25.13-24.3l-51-19.2L298.55,43.54s-.05,0-.07-.06l-.25-.22A3.11,3.11,0,0,0,298,43l-.2-.11a3.4,3.4,0,0,0-1.76-.51H224a4.06,4.06,0,0,0-.71.08h0a3.21,3.21,0,0,0-.62.2c-.08,0-.14.08-.21.11A3.07,3.07,0,0,0,222,43a1.73,1.73,0,0,0-.21.17c-.11.09-.22.18-.32.28l-.06,0L203.71,63.06l-51,19.2c-1.5.51-16.89,6.06-25.13,24.3L69.72,213.49a3.38,3.38,0,0,0-1.15,1.22,3.43,3.43,0,0,0-.41,1.66l-4.58,8.45-.06.11a9.16,9.16,0,0,0,3.87,12.15l74.43,40.3-3.63,196.69a3.47,3.47,0,0,0,3.45,3.52H298a3.45,3.45,0,0,0,0-6.9H145.16l3.37-182.62a3.53,3.53,0,0,0,.23-1.22V189.23a3.45,3.45,0,1,0-6.9,0v61.23L76.64,215.17l57.05-105.44.12-.23A39.28,39.28,0,0,1,154.9,88.8l.16,0,47.55-17.9c3.48,29.62,32.18,61.91,33.47,63.34a3.43,3.43,0,0,0,2.56,1.14h.16a3.46,3.46,0,0,0,2.61-1.39L260,109l18.59,25a3.46,3.46,0,0,0,2.61,1.39h.16a3.43,3.43,0,0,0,2.56-1.14c1.29-1.43,30-33.72,33.47-63.34l47.55,17.9.16,0c.14,0,13.87,4.61,21.09,20.7l.12.23,57,105.45-65.21,35.28V189.23a3.45,3.45,0,1,0-6.9,0v97.62a3.53,3.53,0,0,0,.23,1.22l3.37,182.62H349.7a3.45,3.45,0,0,0,0,6.9h28.66a3.47,3.47,0,0,0,3.45-3.52l-3.63-196.69,74.43-40.3A9.16,9.16,0,0,0,456.48,224.93ZM141.86,258.3v11.26L70.68,231a2.28,2.28,0,0,1-1-3l3.67-6.79ZM260,99.12C243.59,88.46,235.44,77.2,231.4,68.4h57.18C283.37,79.76,273.59,90.28,260,99.12Zm32.84-49.81a40.84,40.84,0,0,1-1.67,12.19H228.84a41.26,41.26,0,0,1-1.68-12.19Zm-54.36,77c-7.53-9.16-28-36.1-29.25-59.08l11.29-12.42A51.39,51.39,0,0,0,223,66.08c6,17.52,20.12,30.1,32,38Zm43.06,0L265,104.12c16.09-10.7,26.78-23.33,31.83-37.59a51.72,51.72,0,0,0,2.69-11.69l11.29,12.42C309.55,90.22,289.06,117.17,281.53,126.34ZM449.33,231l-71.19,38.54V258.3l68.49-37.05,3.68,6.78A2.29,2.29,0,0,1,449.33,231Z"/></g></svg>