<?xml version="1.0" encoding="UTF-8" standalone="no"?> <svg xmlns="http://www.w3.org/2000/svg" viewBox="0 0 520 520"><title>Jeans</title><g id="Jeans"><path d="M345.43,401.22a3.47,3.47,0,0,0-3.57,3.33l0,1.16a3.44,3.44,0,0,0,3.33,3.56h.12a3.46,3.46,0,0,0,3.45-3.33l0-1.16A3.46,3.46,0,0,0,345.43,401.22Z"/><path d="M344.54,425.38a3.43,3.43,0,0,0-3.59,3.3c-.94,22.35-1.9,38.29-2.87,47.47-6.87,2.35-31.57,9.48-56.36.11l-18.28-333.6a3.44,3.44,0,0,0-6.88,0l-18.28,333.6c-24.78,9.36-49.48,2.24-56.35-.11-3.63-34.4-6.39-155.88-8.08-252.85a3.45,3.45,0,1,0-6.9.12c1.73,99.21,4.58,224.09,8.37,255.64a3.44,3.44,0,0,0,2.1,2.78,96,96,0,0,0,33.83,6.09,82.39,82.39,0,0,0,31.67-6.09,3.44,3.44,0,0,0,2.12-3l15-272.93,15,272.93a3.44,3.44,0,0,0,2.12,3c32.39,13.42,64.17.55,65.51,0a3.47,3.47,0,0,0,2.11-2.78c1.06-8.91,2.12-25.76,3.14-50.09A3.45,3.45,0,0,0,344.54,425.38Z"/><path d="M170,203.81h.07a3.44,3.44,0,0,0,3.38-3.51v-1.15a3.45,3.45,0,1,0-6.9.11l0,1.16A3.44,3.44,0,0,0,170,203.81Z"/><path d="M352,32.07H168a3.45,3.45,0,0,0-3.45,3.45V53.83c0,.26.28,26.83.82,66.09.22,16.73.49,35.84.81,56.33a3.45,3.45,0,1,0,6.9-.1c-.31-20-.58-38.72-.8-55.18,12.65-17.47,22-53.51,24.52-63.73h59.75v68a3.44,3.44,0,0,0,3.45,3.45,17.27,17.27,0,0,0,17.25-17.25V57.24h46c2.48,10.22,11.86,46.26,24.52,63.73-1,75.63-2.75,181.8-5.13,260.59a3.45,3.45,0,0,0,3.35,3.56h.1a3.46,3.46,0,0,0,3.45-3.35c2.39-79.23,4.12-186.13,5.14-261.85.53-39.26.81-65.83.81-66.13V35.52A3.45,3.45,0,0,0,352,32.07Zm-3.45,18.27H298.72V39h49.83Zm-74.75,0H228.19V39h63.63V50.34ZM221.29,39V50.34H171.45V39Zm-49.18,69c-.33-25-.54-43.4-.62-50.68h18.19C187.25,66.92,180.69,91.16,172.11,107.92Zm98.24,3.5a10.36,10.36,0,0,1-6.9,9.76V57.24h6.9Zm78.16-54.18c-.08,7.31-.29,25.66-.61,50.68-8.59-16.76-15.15-41-17.57-50.68Z"/></g></svg>