<?xml version="1.0" encoding="UTF-8" standalone="no"?> <svg xmlns="http://www.w3.org/2000/svg" viewBox="0 0 520 520"><title>Blazer</title><g id="Blazer"><path d="M258.67,355.75a7.5,7.5,0,1,0-7.5,7.5A7.5,7.5,0,0,0,258.67,355.75Z"/><path d="M191.28,482.17l-1-.25a3.45,3.45,0,1,0-1.7,6.69l1,.26a3.31,3.31,0,0,0,.83.1,3.45,3.45,0,0,0,.83-6.8Z"/><path d="M401.71,228.09a3.45,3.45,0,1,0-6.87.58c5.84,69.85,7.81,151.83,5.87,243.71H368.63a62.54,62.54,0,0,0,9.17-7.31c4-4,3-12.34,1.51-21.24-.21-1.26-.39-2.34-.48-3.08-1.61-14-4-27.65-6.58-41.55-2.21-12.12-4.83-24.37-7.37-36.22l-.35-1.63h0a.44.44,0,0,0,0-.1h0c-4.91-23-10.48-49-12.45-74.84-2.65-34.53-1-71.29,5.17-112.39,6.27-42.1,13.46-66.83,17.65-78.84,3.65,13.76,10.26,43.2,15.94,92.68a3.45,3.45,0,0,0,3.42,3.06l.4,0a3.45,3.45,0,0,0,3-3.82C389.26,113.75,379,84.59,378.61,83.38l0,0a.11.11,0,0,1,0,0c0-.08-.08-.14-.11-.21s-.13-.26-.2-.38-.11-.14-.16-.22-.18-.23-.28-.33a1.71,1.71,0,0,0-.2-.18l-.32-.26-.26-.15a1.87,1.87,0,0,0-.35-.17l-.13-.07L335.28,65.93h0L311.9,57.22a71.55,71.55,0,0,0-7.16-2.95,22.2,22.2,0,0,1-7.55-6.9L289.62,36.2l0-.05,0,0a0,0,0,0,0,0,0,15.87,15.87,0,0,0-8.24-6.2,69.53,69.53,0,0,0-42.66,0,15.9,15.9,0,0,0-8.25,6.19l-.07.11-7.52,11.11-.53.74h0a21,21,0,0,1-2.24,2.6,21.51,21.51,0,0,1-4.79,3.59,73.22,73.22,0,0,0-7.28,3L143.41,81.31l-.11.06a2.53,2.53,0,0,0-.37.18,1.94,1.94,0,0,0-.24.15,2.88,2.88,0,0,0-.34.27l-.19.16a3.47,3.47,0,0,0-.3.37c0,.06-.09.11-.13.18a2.93,2.93,0,0,0-.23.43l-.09.17a0,0,0,0,1,0,0l0,.07c-.36,1-9,25.66-17,86.55-13.24,101.41-13.81,222.36-12,306a3.45,3.45,0,0,0,3.45,3.37h47.36c1.55.77,3.14,1.53,4.74,2.24a3.4,3.4,0,0,0,1.39.29,3.45,3.45,0,0,0,1.4-6.6c-1.75-.78-3.49-1.6-5.17-2.46l-.15-.07c-12.3-6.26-18.3-12.38-18.4-12.49-1.21-1.21-1.07-6.33.41-15.22.23-1.35.42-2.52.53-3.42,1.59-13.81,4-27.32,6.51-41.11,2-11.07,4.4-22.28,6.74-33.21a237.64,237.64,0,0,0,37.45,2.84c5.16,0,10.67-.16,16.43-.54a3.44,3.44,0,0,0,3.14-2.67l6.13-26.75a3.45,3.45,0,0,0-3.6-4.21c-.34,0-33.52,2.26-52.19-4.5a411.29,411.29,0,0,0,6.19-44.48c2.68-35,1-72.31-5.23-113.93-7.75-52.06-16.77-77.77-20.33-86.49l33.83-12.6c16.62,118.23,68.69,198,73.72,205.55,2.12,9.4,25.18,116.22.5,183.83a3.45,3.45,0,0,0-.75,2,105.14,105.14,0,0,1-10.33,20.45,180.69,180.69,0,0,1-35.23-.13,3.45,3.45,0,0,0-.74,6.86,175.58,175.58,0,0,0,18.71,1c6.38,0,12.92-.32,19.55-1,.1,0,.19,0,.29-.06l.28-.05a3.62,3.62,0,0,0,.55-.2l.16-.07a3.27,3.27,0,0,0,.62-.43l.13-.13a3.47,3.47,0,0,0,.41-.45L251,491a103.91,103.91,0,0,0,8.23-14.42c4.27,12.37,10.4,15.31,11.23,15.65a3.14,3.14,0,0,0,1,.25c6.86.67,13.35,1,19.5,1,30.21,0,52-7.27,65.77-14.16h47.36a3.46,3.46,0,0,0,3.45-3.37C409.6,382.42,407.65,299,401.71,228.09ZM216.66,343l-4.54,19.78a238.82,238.82,0,0,1-49.33-2.3l5.44-21.94C184.12,343.62,206.93,343.39,216.66,343ZM162.75,174c6.12,41.1,7.81,77.87,5.17,112.39-2,25.7-7.41,51.21-12.68,75.87l0,.21a.19.19,0,0,0,0,.08.13.13,0,0,0,0,.06l0,.11c-2.55,11.93-5.2,24.27-7.42,36.47-2.55,13.9-5,27.54-6.59,41.55-.08.74-.26,1.82-.47,3.08-1.49,8.9-2.49,17.23,1.46,21.19a61.22,61.22,0,0,0,9.22,7.36H119.27c-3.15-148.8,4.72-245.78,11.91-301,5.15-39.62,10.69-64,13.92-76.17C149.29,107.18,156.47,131.9,162.75,174ZM357,359.41a200.5,200.5,0,0,1-49.1,3.39L303.32,343c9.72.38,32.54.6,48.43-4.46ZM295.56,83.07c0-1-.09-2-.14-2.95V80h0c-.08-1.65-.17-3.25-.26-4.81L295,72.72a.76.76,0,0,0,0-.15c0-.13,0-.25,0-.46l0-.48c0-.59-.09-1.17-.13-1.75h0a.22.22,0,0,0,0-.08c0-.56-.09-1.12-.14-1.67v-.18l-.16-1.84c0-.07,0-.13,0-.2L294.24,64a.85.85,0,0,0,0-.16l-.14-1.36h0c0-.38-.07-.76-.12-1.12l-.08-.74h0c-.27-2.46-.57-4.94-.91-7.37a29.15,29.15,0,0,0,8.65,7.2h0c.27.15.55.3.88.46l.06,0h0c.53.26,1.06.51,1.62.74l.05,0h0c.25.11.5.21.76.3l4.08,1.53.18.07,20.93,7.8c-11.38,82.72-40.11,146.14-58,179.22C293.84,176.93,297,119.63,295.56,83.07ZM189.7,71.42l20.81-7.75h0l4.15-1.55c.48-.18,1-.38,1.46-.6l.47-.2.27-.13h0l.1,0,.56-.27h0l0,0,.07,0h0l0,0,.07,0,.59-.32h0l0,0a28.92,28.92,0,0,0,6.49-4.83h0l.28-.3c.45-.46.89-.93,1.32-1.43.16-.19.31-.39.47-.59-4.11,29.64-8.11,98.84,20.66,197.24C229.75,217.26,201,153.73,189.7,71.42Zm46.74-31.84a8.92,8.92,0,0,1,4.34-3.1,62.56,62.56,0,0,1,38.42,0,8.94,8.94,0,0,1,4.33,3.09c.11.49.28,1.21.49,2.2v0h0l0,.05.15.74,0,.16c.06.27.12.57.18.87a.3.3,0,0,0,0,.1c.25,1.26.52,2.77.82,4.53.13.73.25,1.52.38,2.33.18,1.12.35,2.32.53,3.6.33,2.4.64,4.85.91,7.35l.07.67h0c0,.28.07.57.1.94l.52,5.53c.05.59.1,1.17.15,1.67s.08,1.21.13,1.82l0,.48h0c0,.2,0,.39,0,.58l.15,2.33c.09,1.54.18,3.12.26,4.75v.16c.05.94.09,1.9.13,2.88,1.58,39-2.27,102-28.68,183.69C216.33,132,234.32,48.38,236.44,39.58Zm118,433.16h0c-15.62,7.93-42.41,16.58-81.5,12.93-1.4-1-6.56-5.44-9.25-19.65,11.17-30.3,14.55-71.16,10-121.5a551.87,551.87,0,0,0-10-65.86c7.33-11,57-89.26,73.21-204.77l33.83,12.6c-3.55,8.72-12.57,34.43-20.32,86.49-6.21,41.62-7.92,78.89-5.23,113.93a411.81,411.81,0,0,0,6.18,44.48c-18.66,6.75-51.84,4.52-52.18,4.5a3.45,3.45,0,0,0-3.6,4.21l6.13,26.75a3.43,3.43,0,0,0,3.13,2.67c4.84.32,9.48.46,13.89.46a199.43,199.43,0,0,0,39.77-3.84c2.41,11.27,4.87,22.86,7,34.29,2.53,13.79,4.92,27.3,6.52,41.1.1.91.3,2.08.53,3.43,1.48,8.89,1.62,14,.36,15.27C372.81,460.3,366.78,466.46,354.4,472.74Z"/><path d="M396,203.93a3.45,3.45,0,0,0-3.1,3.77l.1,1a3.45,3.45,0,0,0,3.43,3.12l.33,0A3.46,3.46,0,0,0,399.9,208l-.1-1A3.45,3.45,0,0,0,396,203.93Z"/></g></svg>